{
	"asset":{
		"generator":"Khronos glTF Blender I/O v4.0.44",
		"version":"2.0"
	},
	"extensionsUsed":[
		"KHR_materials_transmission"
	],
	"scene":0,
	"scenes":[
		{
			"name":"Scene",
			"nodes":[
				0
			]
		}
	],
	"nodes":[
		{
			"mesh":0,
			"name":"Mesh_0",
			"translation":[
				-50,
				-50,
				50
			]
		}
	],
	"materials":[
		{
			"doubleSided":true,
			"extensions":{
				"KHR_materials_transmission":{
					"transmissionFactor":1,
					"transmissionTexture":{
						"index":0
					}
				}
			},
			"name":"Material_0",
			"pbrMetallicRoughness":{
				"baseColorTexture":{
					"index":1
				},
				"metallicRoughnessTexture":{
					"index":2
				}
			}
		}
	],
	"meshes":[
		{
			"name":"Mesh_0",
			"primitives":[
				{
					"attributes":{
						"POSITION":0,
						"NORMAL":1,
						"TEXCOORD_0":2
					},
					"indices":3,
					"material":0
				}
			]
		}
	],
	"textures":[
		{
			"sampler":0,
			"source":0
		},
		{
			"sampler":0,
			"source":1
		},
		{
			"sampler":0,
			"source":2
		}
	],
	"images":[
		{
			"mimeType":"image/png",
			"name":"model_0_transmittance",
			"uri":"model_0_transmittance.png"
		},
		{
			"mimeType":"image/png",
			"name":"model_0_color",
			"uri":"model_0_color.png"
		},
		{
			"mimeType":"image/png",
			"name":"model_0_metallicRoughness",
			"uri":"model_0_metallicRoughness.png"
		}
	],
	"accessors":[
		{
			"bufferView":0,
			"componentType":5126,
			"count":192214,
			"max":[
				100.00265502929688,
				100.00213623046875,
				0.00039934576489031315
			],
			"min":[
				-0.001389882294461131,
				-0.0037901350297033787,
				-100.00222778320312
			],
			"type":"VEC3"
		},
		{
			"bufferView":1,
			"componentType":5126,
			"count":192214,
			"type":"VEC3"
		},
		{
			"bufferView":2,
			"componentType":5126,
			"count":192214,
			"type":"VEC2"
		},
		{
			"bufferView":3,
			"componentType":5125,
			"count":192972,
			"type":"SCALAR"
		}
	],
	"bufferViews":[
		{
			"buffer":0,
			"byteLength":2306568,
			"byteOffset":0,
			"target":34962
		},
		{
			"buffer":0,
			"byteLength":2306568,
			"byteOffset":2306568,
			"target":34962
		},
		{
			"buffer":0,
			"byteLength":1537712,
			"byteOffset":4613136,
			"target":34962
		},
		{
			"buffer":0,
			"byteLength":771888,
			"byteOffset":6150848,
			"target":34963
		}
	],
	"samplers":[
		{
			"magFilter":9729,
			"minFilter":9987
		}
	],
	"buffers":[
		{
			"byteLength":6922736,
			"uri":"untitled.bin"
		}
	]
}
